<?xml version="1.0" encoding="utf-8"?>
<!-- Generator: Adobe Illustrator 26.3.0, SVG Export Plug-In . SVG Version: 6.00 Build 0)  -->
<svg version="1.1" xmlns="http://www.w3.org/2000/svg" xmlns:xlink="http://www.w3.org/1999/xlink" x="0px" y="0px"
	 viewBox="0 0 800 800" style="enable-background:new 0 0 800 800;" xml:space="preserve">
<style type="text/css">
	.st0{display:none;}
	.st1{display:inline;fill:#F7F7F7;}
	.st2{clip-path:url(#SVGID_00000093857151456783247650000002060201003820463497_);}
	.st3{fill:#1E94AF;}
	.st4{fill:#45BEED;}
	
		.st5{clip-path:url(#SVGID_00000140715063778623659690000010638633324212405424_);fill:url(#SVGID_00000174576274036731785260000002814328266847922090_);}
	.st6{clip-path:url(#SVGID_00000140715063778623659690000010638633324212405424_);}
	.st7{fill:#2F363A;}
	.st8{opacity:0.64;fill:#212628;}
	.st9{fill:#BFBFBF;}
	.st10{fill:#EFEFEF;}
	.st11{fill:#EDEDED;}
	.st12{fill:#CCCCCC;}
	.st13{opacity:0.1;fill:#353535;}
	.st14{fill:#E5E5E5;}
	.st15{fill:#DBDBDB;}
	.st16{fill:#FFA33E;}
</style>
<g id="Background" class="st0">
	<rect class="st1" width="800" height="800"/>
</g>
<g id="Objects">
	<g>
		<defs>
			<rect id="SVGID_1_" width="800" height="800"/>
		</defs>
		<clipPath id="SVGID_00000159468641635600227480000013174063130725684137_">
			<use xlink:href="#SVGID_1_"  style="overflow:visible;"/>
		</clipPath>
		<g style="clip-path:url(#SVGID_00000159468641635600227480000013174063130725684137_);">
			<g>
				<g>
					<circle class="st3" cx="400" cy="385.1" r="208"/>
					<circle class="st4" cx="400" cy="375.9" r="208"/>
				</g>
				<g>
					<defs>
						<circle id="SVGID_00000003789454357618594330000007465403731530719106_" cx="400" cy="375.9" r="208"/>
					</defs>
					<clipPath id="SVGID_00000021806385747722624800000002315234891596092291_">
						<use xlink:href="#SVGID_00000003789454357618594330000007465403731530719106_"  style="overflow:visible;"/>
					</clipPath>
					
						<linearGradient id="SVGID_00000159459801021835413510000004388843853499535762_" gradientUnits="userSpaceOnUse" x1="383.5849" y1="264.3257" x2="520.9975" y2="641.8637">
						<stop  offset="0" style="stop-color:#000000"/>
						<stop  offset="1" style="stop-color:#020202;stop-opacity:0"/>
					</linearGradient>
					
						<polygon style="clip-path:url(#SVGID_00000021806385747722624800000002315234891596092291_);fill:url(#SVGID_00000159459801021835413510000004388843853499535762_);" points="
						644.1,597.1 368.4,597.1 254.4,483.1 315.7,452.3 315.7,378.3 250.2,312.9 549.8,312.9 644.5,407.6 					"/>
					<g style="clip-path:url(#SVGID_00000021806385747722624800000002315234891596092291_);">
						<g>
							<g>
								<rect x="287.2" y="309.6" class="st7" width="225.6" height="147"/>
								<polygon class="st8" points="287.2,309.6 477,474.3 510.2,473.5 512.8,309.6 								"/>
							</g>
							<g>
								<g>
									<rect x="269.8" y="312.9" class="st9" width="260.3" height="5.8"/>
									<g>
										<g>
											<rect x="254.4" y="439.1" class="st10" width="68.6" height="44"/>
											<rect x="477" y="439.1" class="st10" width="68.6" height="44"/>
											<g>
												<rect x="323" y="439.1" class="st11" width="154" height="8.8"/>
												<rect x="323" y="447.9" class="st12" width="154" height="8.8"/>
												<rect x="323" y="456.7" class="st11" width="154" height="8.8"/>
												<rect x="323" y="465.5" class="st12" width="154" height="8.8"/>
												<rect x="323" y="474.3" class="st11" width="154" height="8.8"/>
												<path class="st13" d="M323,439.1v44c0,0,9.3-31.1,35.8-44H323z"/>
												<path class="st13" d="M477,439.1v44c0,0-9.3-31.1-35.8-44H477z"/>
											</g>
										</g>
										<g>
											<g>
												<g>
													<g>
														<rect x="266.4" y="432.1" class="st11" width="41.7" height="8.9"/>
														<g>
															<rect x="272.3" y="321.3" class="st10" width="9.9" height="110.8"/>
															
																<rect x="282.3" y="321.3" transform="matrix(-1 -1.224647e-16 1.224647e-16 -1 574.4416 753.3786)" class="st14" width="9.9" height="110.8"/>
															<rect x="292.2" y="321.3" class="st12" width="9.9" height="110.8"/>
														</g>
													</g>
													<g>
														<g>
															<rect x="264.1" y="312.9" class="st11" width="18.1" height="8.4"/>
															<rect x="292.2" y="312.9" class="st12" width="18.1" height="8.4"/>
															<rect x="282.3" y="312.9" class="st14" width="9.9" height="8.4"/>
														</g>
														<rect x="272.3" y="321.3" class="st13" width="29.8" height="3.1"/>
													</g>
												</g>
												<g>
													<g>
														<rect x="379.1" y="432.1" class="st11" width="41.7" height="8.9"/>
														<g>
															<rect x="385.1" y="321.3" class="st10" width="9.9" height="110.8"/>
															
																<rect x="395" y="321.3" transform="matrix(-1 -1.224647e-16 1.224647e-16 -1 800 753.3786)" class="st14" width="9.9" height="110.8"/>
															<rect x="405" y="321.3" class="st12" width="9.9" height="110.8"/>
														</g>
													</g>
													<g>
														<g>
															<rect x="376.9" y="312.9" class="st11" width="18.1" height="8.4"/>
															<rect x="405" y="312.9" class="st12" width="18.1" height="8.4"/>
															<rect x="395" y="312.9" class="st14" width="9.9" height="8.4"/>
														</g>
														<rect x="385.1" y="321.3" class="st13" width="29.8" height="3.1"/>
													</g>
												</g>
												<g>
													<g>
														<rect x="491.9" y="432.1" class="st11" width="41.7" height="8.9"/>
														<g>
															<rect x="497.9" y="321.3" class="st10" width="9.9" height="110.8"/>
															
																<rect x="507.8" y="321.3" transform="matrix(-1 -1.224647e-16 1.224647e-16 -1 1025.5583 753.3786)" class="st14" width="9.9" height="110.8"/>
															<rect x="517.7" y="321.3" class="st12" width="9.9" height="110.8"/>
														</g>
													</g>
													<g>
														<g>
															<rect x="489.7" y="312.9" class="st11" width="18.1" height="8.4"/>
															<rect x="517.7" y="312.9" class="st12" width="18.1" height="8.4"/>
															<rect x="507.8" y="312.9" class="st14" width="9.9" height="8.4"/>
														</g>
														<rect x="497.9" y="321.3" class="st13" width="29.8" height="3.1"/>
													</g>
												</g>
											</g>
											<polygon class="st10" points="400,213 549.8,312.9 400,312.9 250.2,312.9 											"/>
											<path class="st14" d="M400,224.6l-117.7,78.5H400h117.7L400,224.6l-117.7,78.5L400,224.6z"/>
											<path class="st15" d="M400,248.5l81.9,54.7H400h-81.9L400,248.5"/>
										</g>
										<g>
											<polygon class="st13" points="400,224.6 282.3,303.2 292.2,303.2 											"/>
											<polygon class="st13" points="400,224.6 517.7,303.2 507.8,303.2 											"/>
											<polygon class="st13" points="400,248.5 318.1,303.2 322,303.2 											"/>
											<polygon class="st13" points="400,248.5 481.9,303.2 478,303.2 											"/>
										</g>
									</g>
								</g>
								
									<ellipse transform="matrix(0.1602 -0.9871 0.9871 0.1602 60.1015 629.5084)" class="st13" cx="400" cy="279.4" rx="17.8" ry="17.8"/>
								
									<ellipse transform="matrix(0.9239 -0.3827 0.3827 0.9239 -75.7923 174.2058)" class="st10" cx="400" cy="277.6" rx="17.8" ry="17.8"/>
							</g>
						</g>
						<g>
							<g>
								<rect x="287.2" y="309.6" class="st7" width="225.6" height="147"/>
								<polygon class="st8" points="287.2,309.6 477,474.3 510.2,473.5 512.8,309.6 								"/>
							</g>
							<g>
								<g>
									<rect x="269.8" y="312.9" class="st9" width="260.3" height="5.8"/>
									<g>
										<g>
											<rect x="254.4" y="439.1" class="st10" width="68.6" height="44"/>
											<rect x="477" y="439.1" class="st10" width="68.6" height="44"/>
											<g>
												<rect x="323" y="439.1" class="st11" width="154" height="8.8"/>
												<rect x="323" y="447.9" class="st12" width="154" height="8.8"/>
												<rect x="323" y="456.7" class="st11" width="154" height="8.8"/>
												<rect x="323" y="465.5" class="st12" width="154" height="8.8"/>
												<rect x="323" y="474.3" class="st11" width="154" height="8.8"/>
												<path class="st13" d="M323,439.1v44c0,0,9.3-31.1,35.8-44H323z"/>
												<path class="st13" d="M477,439.1v44c0,0-9.3-31.1-35.8-44H477z"/>
											</g>
										</g>
										<g>
											<g>
												<g>
													<g>
														<rect x="266.4" y="432.1" class="st11" width="41.7" height="8.9"/>
														<g>
															<rect x="272.3" y="321.3" class="st10" width="9.9" height="110.8"/>
															
																<rect x="282.3" y="321.3" transform="matrix(-1 -1.224647e-16 1.224647e-16 -1 574.4416 753.3786)" class="st14" width="9.9" height="110.8"/>
															<rect x="292.2" y="321.3" class="st12" width="9.9" height="110.8"/>
														</g>
													</g>
													<g>
														<g>
															<rect x="264.1" y="312.9" class="st11" width="18.1" height="8.4"/>
															<rect x="292.2" y="312.9" class="st12" width="18.1" height="8.4"/>
															<rect x="282.3" y="312.9" class="st14" width="9.9" height="8.4"/>
														</g>
														<rect x="272.3" y="321.3" class="st13" width="29.8" height="3.1"/>
													</g>
												</g>
												<g>
													<g>
														<rect x="379.1" y="432.1" class="st11" width="41.7" height="8.9"/>
														<g>
															<rect x="385.1" y="321.3" class="st10" width="9.9" height="110.8"/>
															
																<rect x="395" y="321.3" transform="matrix(-1 -1.224647e-16 1.224647e-16 -1 800 753.3786)" class="st14" width="9.9" height="110.8"/>
															<rect x="405" y="321.3" class="st12" width="9.9" height="110.8"/>
														</g>
													</g>
													<g>
														<g>
															<rect x="376.9" y="312.9" class="st11" width="18.1" height="8.4"/>
															<rect x="405" y="312.9" class="st12" width="18.1" height="8.4"/>
															<rect x="395" y="312.9" class="st14" width="9.9" height="8.4"/>
														</g>
														<rect x="385.1" y="321.3" class="st13" width="29.8" height="3.1"/>
													</g>
												</g>
												<g>
													<g>
														<rect x="491.9" y="432.1" class="st11" width="41.7" height="8.9"/>
														<g>
															<rect x="497.9" y="321.3" class="st10" width="9.9" height="110.8"/>
															
																<rect x="507.8" y="321.3" transform="matrix(-1 -1.224647e-16 1.224647e-16 -1 1025.5583 753.3786)" class="st14" width="9.9" height="110.8"/>
															<rect x="517.7" y="321.3" class="st12" width="9.9" height="110.8"/>
														</g>
													</g>
													<g>
														<g>
															<rect x="489.7" y="312.9" class="st11" width="18.1" height="8.4"/>
															<rect x="517.7" y="312.9" class="st12" width="18.1" height="8.4"/>
															<rect x="507.8" y="312.9" class="st14" width="9.9" height="8.4"/>
														</g>
														<rect x="497.9" y="321.3" class="st13" width="29.8" height="3.1"/>
													</g>
												</g>
											</g>
											<polygon class="st10" points="400,213 549.8,312.9 400,312.9 250.2,312.9 											"/>
											<path class="st14" d="M400,224.6l-117.7,78.5H400h117.7L400,224.6l-117.7,78.5L400,224.6z"/>
											<path class="st15" d="M400,248.5l81.9,54.7H400h-81.9L400,248.5"/>
										</g>
										<g>
											<polygon class="st13" points="400,224.6 282.3,303.2 292.2,303.2 											"/>
											<polygon class="st13" points="400,224.6 517.7,303.2 507.8,303.2 											"/>
											<polygon class="st13" points="400,248.5 318.1,303.2 322,303.2 											"/>
											<polygon class="st13" points="400,248.5 481.9,303.2 478,303.2 											"/>
										</g>
									</g>
								</g>
								
									<ellipse transform="matrix(0.1602 -0.9871 0.9871 0.1602 60.1015 629.5084)" class="st13" cx="400" cy="279.4" rx="17.8" ry="17.8"/>
								
									<ellipse transform="matrix(0.9239 -0.3827 0.3827 0.9239 -75.7923 174.2058)" class="st10" cx="400" cy="277.6" rx="17.8" ry="17.8"/>
							</g>
						</g>
						<g>
							<path class="st16" d="M400.6,287.3l0,2.4c-0.5,0-1.3-0.1-1.6-0.4v-1.9c-2.2-0.1-3.7-0.7-5.4-1.8c0.3-1.5,0.3-3.1,0.3-4.3
								c0.6-0.2,1.4-0.2,2.1-0.2c0.1,2.7,1,4.3,3.1,4.6v-6.8c-2.5-1.2-5.1-2.6-5.1-6.2c0-3.2,2-5,5.2-5.3v-1.8
								c0.7,0,1.2,0.1,1.6,0.4l0,1.4c1.8,0.1,3.4,0.6,4.3,1.2c0,1.3,0,3,0.2,4c-0.5,0.3-1.4,0.4-2,0.4c-0.5-2.6-1.2-3.7-2.4-3.9
								c0,2.1,0,4.1,0,6.4c2.6,1.3,5.8,2.5,5.8,6.2C406.4,284.5,404.6,286.9,400.6,287.3z M399.1,274.6V269
								c-1.4,0.2-2.2,1.1-2.2,2.5C396.9,272.9,397.8,273.8,399.1,274.6z M400.6,285.7c1.9-0.2,2.7-1.4,2.7-2.7
								c0-1.6-1.2-2.6-2.7-3.4L400.6,285.7z"/>
						</g>
					</g>
				</g>
			</g>
		</g>
	</g>
</g>
</svg>
