<?xml version="1.0" encoding="utf-8"?>
<!-- Generator: Adobe Illustrator 26.3.0, SVG Export Plug-In . SVG Version: 6.00 Build 0)  -->
<svg version="1.1" id="Layer_1" xmlns="http://www.w3.org/2000/svg" xmlns:xlink="http://www.w3.org/1999/xlink" x="0px" y="0px"
	 viewBox="0 0 1366 768" style="enable-background:new 0 0 1366 768;" xml:space="preserve">
<style type="text/css">
	.st0{opacity:0.72;}
	.st1{clip-path:url(#SVGID_00000026871467761140941870000014062304211872439991_);fill:none;}
	
		.st2{opacity:0.27;clip-path:url(#SVGID_00000026871467761140941870000014062304211872439991_);fill:url(#SVGID_00000109737846309337579640000003485501308277977229_);}
	.st3{clip-path:url(#SVGID_00000026871467761140941870000014062304211872439991_);}
	.st4{fill:#FFFFFF;}
	.st5{font-family:'GillSansMT';}
	.st6{font-size:74.5908px;}
	.st7{letter-spacing:6.6;}
	.st8{font-family:'Georgia';}
	.st9{font-size:50.3111px;}
	.st10{letter-spacing:4.7;}
	.st11{font-size:47.6961px;}
	.st12{font-size:12.6114px;}
	.st13{font-family:'Montserrat-Regular';}
	
		.st14{clip-path:url(#SVGID_00000072966624790469434140000009491927904675049886_);fill:url(#SVGID_00000178903609986987606030000005456744446479948965_);}
	.st15{clip-path:url(#SVGID_00000072966624790469434140000009491927904675049886_);}
	.st16{fill:url(#SVGID_00000166647782762352327190000004456600760587682949_);}
	.st17{fill:url(#SVGID_00000140735766161415679070000011877168614868399011_);}
	.st18{fill:url(#SVGID_00000183934983694261894500000001263149253846776471_);}
	.st19{fill:url(#SVGID_00000148637706614058203420000003397053589386697635_);}
	.st20{fill:url(#SVGID_00000081626571878617419030000006462260438121758340_);}
	.st21{fill:url(#SVGID_00000011728355839412544890000008475128630465921935_);}
	.st22{fill:url(#SVGID_00000082332025281383088430000007789896196062863036_);}
	.st23{fill:url(#SVGID_00000144302806383879828800000010054611160117464495_);}
	.st24{fill:url(#SVGID_00000083053358521180938810000012101035395920978105_);}
	.st25{fill:url(#SVGID_00000165926166632000695450000006080707182359178426_);}
	.st26{fill:url(#SVGID_00000183211827636308549970000016050153290203154075_);}
	.st27{fill:url(#SVGID_00000003086322222932400970000003229675515835551410_);}
	.st28{fill:url(#SVGID_00000151544857571201526920000009464340935106778282_);}
	.st29{fill:url(#SVGID_00000059294529844554926730000015953811465224982662_);}
	.st30{fill:url(#SVGID_00000070115630115125850810000002138930041346229680_);}
	.st31{fill:url(#SVGID_00000135662785428156181460000001944913027034307745_);}
	.st32{fill:url(#SVGID_00000151504542749192953130000004012138588445293186_);}
	.st33{fill:url(#SVGID_00000080205724842809740090000016966144954300236457_);}
	.st34{fill:url(#SVGID_00000030453520332087429160000008906508515303404689_);}
	.st35{fill:url(#SVGID_00000080199602356508608200000005867139486957070212_);}
	.st36{fill:url(#SVGID_00000085248554548943701970000016263457039508765609_);}
	.st37{fill:url(#SVGID_00000151526666948618421060000014650908960281715611_);}
	.st38{fill:url(#SVGID_00000114790010798603798870000016586647682972088966_);}
	.st39{fill:url(#SVGID_00000173150820161114918750000007304619192730439615_);}
	.st40{fill:url(#SVGID_00000180362762776818245610000008414417613611635589_);}
	.st41{fill:url(#SVGID_00000171693039928603713730000012048096548625021078_);}
	.st42{opacity:0.53;clip-path:url(#SVGID_00000072966624790469434140000009491927904675049886_);}
	.st43{opacity:0.5;}
	.st44{opacity:0.37;fill:#C1C1C1;}
	.st45{fill:#767676;}
	.st46{font-family:'Montserrat-Black';}
	.st47{font-size:46.6926px;}
	
		.st48{clip-path:url(#SVGID_00000119811585446900884210000008433315272473264315_);fill:url(#SVGID_00000106830551015788685400000008409719022529629583_);}
	.st49{clip-path:url(#SVGID_00000119811585446900884210000008433315272473264315_);}
	.st50{opacity:0.43;}
	.st51{fill:#D69B6B;}
	.st52{fill:#282018;}
</style>
<g>
	<g class="st0">
		<image style="overflow:visible;" width="1117" height="320" xlink:href="B9394BCE.png"  transform="matrix(1 0 0 1 136 504)">
		</image>
	</g>
	<g>
		<defs>
			<path id="SVGID_1_" d="M1254.4,734.1H134.6c-6.9,0-12.6-5.6-12.6-12.6v-679c0-6.9,5.6-12.6,12.6-12.6h1119.9
				c6.9,0,12.6,5.6,12.6,12.6v679C1267,728.5,1261.4,734.1,1254.4,734.1z"/>
		</defs>
		<clipPath id="SVGID_00000178201033081496823470000002261955285563772570_">
			<use xlink:href="#SVGID_1_"  style="overflow:visible;"/>
		</clipPath>
		
			<rect x="91.8" y="11.5" style="clip-path:url(#SVGID_00000178201033081496823470000002261955285563772570_);fill:none;" width="1205.3" height="741.2"/>
		<g style="clip-path:url(#SVGID_00000178201033081496823470000002261955285563772570_);">
			<image style="overflow:visible;" width="1497" height="982" xlink:href="B9394BD2.png"  transform="matrix(1 0 0 1 -54 -109)">
			</image>
		</g>
		
			<linearGradient id="SVGID_00000117645100324796608340000007088144094561015171_" gradientUnits="userSpaceOnUse" x1="1155.3549" y1="245.1523" x2="1483.6792" y2="245.1523" gradientTransform="matrix(-0.6331 -0.4656 0.9195 -1.2504 1110.4634 1266.4392)">
			<stop  offset="0" style="stop-color:#FFFFFF"/>
			<stop  offset="6.285286e-02" style="stop-color:#DADADA"/>
			<stop  offset="0.1601" style="stop-color:#A7A7A7"/>
			<stop  offset="0.2621" style="stop-color:#7B7B7B"/>
			<stop  offset="0.3668" style="stop-color:#555555"/>
			<stop  offset="0.475" style="stop-color:#363636"/>
			<stop  offset="0.5878" style="stop-color:#1E1E1E"/>
			<stop  offset="0.7072" style="stop-color:#0D0D0D"/>
			<stop  offset="0.8376" style="stop-color:#030303"/>
			<stop  offset="1" style="stop-color:#000000"/>
		</linearGradient>
		
			<polygon style="opacity:0.27;clip-path:url(#SVGID_00000178201033081496823470000002261955285563772570_);fill:url(#SVGID_00000117645100324796608340000007088144094561015171_);" points="
			419.5,-630.4 1054.8,-190.5 132,990.9 -503.3,551 		"/>
		<g style="clip-path:url(#SVGID_00000178201033081496823470000002261955285563772570_);">
			<text transform="matrix(1.0622 0 0 1 232.4111 477.8271)" class="st4 st5 st6 st7">4532  3100  9999  1048</text>
			<text transform="matrix(1.0622 0 0 1 230.499 689.5459)" class="st4 st8 st9 st10">Mohamed Ettarni</text>
			<g>
				<text transform="matrix(1.0622 0 0 1 690.2178 586.2119)" class="st4 st5 st11 st10">00-00</text>
				<text transform="matrix(1.0622 0 0 1 630.5566 567.46)"><tspan x="0" y="0" class="st4 st5 st12">EXPIRES</tspan><tspan x="18.9" y="15.1" class="st4 st5 st12">END</tspan></text>
			</g>
			<g>
				<text transform="matrix(1.0622 0 0 1 722.5029 542.8633)" class="st4 st13 st12">MONTH/YEAR</text>
			</g>
			<g>
				<g>
					<path class="st4" d="M239.1,547.3v-0.6l10.6-12.3h1.1l-10.6,12.3l-0.5-0.2h15.6v0.8H239.1z M250.2,552.5v-5.2v-0.8v-4.6h0.9
						v10.6H250.2z"/>
					<path class="st4" d="M263.2,552.6c-1.4,0-2.7-0.2-3.9-0.7c-1.2-0.5-2.1-1.1-2.8-1.8l0.5-0.6c0.5,0.7,1.4,1.2,2.5,1.7
						c1.1,0.4,2.3,0.7,3.7,0.7c1.9,0,3.3-0.4,4.2-1.2c0.9-0.8,1.4-1.9,1.4-3.2c0-0.9-0.2-1.7-0.7-2.4c-0.4-0.7-1.2-1.2-2.3-1.5
						c-1.1-0.3-2.5-0.5-4.3-0.5h-3.7l1-8.5h9.9v0.8h-9.5l0.4-0.4l-0.9,7.7l-0.4-0.4h3.4c2,0,3.6,0.2,4.7,0.6c1.2,0.4,2,1,2.5,1.8
						c0.5,0.8,0.8,1.7,0.8,2.8c0,1-0.2,1.9-0.7,2.7c-0.5,0.8-1.2,1.4-2.2,1.9C265.9,552.4,264.6,552.6,263.2,552.6z"/>
					<path class="st4" d="M278.1,552.6c-1.4,0-2.8-0.2-4-0.7c-1.2-0.5-2.1-1.1-2.7-1.8l0.5-0.6c0.5,0.7,1.4,1.2,2.5,1.7
						c1.1,0.4,2.3,0.7,3.7,0.7c1.8,0,3.2-0.4,4.2-1.2c1-0.8,1.4-1.8,1.4-3.1s-0.5-2.4-1.4-3.1c-1-0.8-2.5-1.2-4.5-1.2h-1.1v-0.6
						l6.3-7.7l0.1,0.3h-11v-0.8h11.8v0.6l-6.3,7.7l-0.3-0.3h0.5c2.3,0,4,0.5,5.1,1.4c1.1,0.9,1.7,2.2,1.7,3.7c0,1-0.2,1.9-0.7,2.7
						c-0.5,0.8-1.2,1.4-2.2,1.8S279.5,552.6,278.1,552.6z"/>
					<path class="st4" d="M287.2,552.5v-0.6l8.2-7.8c0.8-0.7,1.4-1.4,1.8-2c0.4-0.6,0.7-1.1,0.8-1.6c0.1-0.5,0.2-1,0.2-1.5
						c0-1.2-0.4-2.2-1.3-2.9c-0.9-0.7-2.2-1.1-3.8-1.1c-1.3,0-2.4,0.2-3.3,0.5c-0.9,0.4-1.8,0.9-2.4,1.6l-0.6-0.6
						c0.7-0.8,1.6-1.4,2.7-1.8c1.1-0.4,2.3-0.6,3.7-0.6c1.2,0,2.3,0.2,3.2,0.6c0.9,0.4,1.6,0.9,2.1,1.6c0.5,0.7,0.7,1.5,0.7,2.5
						c0,0.6-0.1,1.1-0.2,1.7c-0.2,0.6-0.5,1.1-0.9,1.8c-0.4,0.6-1.1,1.3-1.9,2.1l-7.9,7.5l-0.4-0.4h12.4v0.8H287.2z"/>
				</g>
			</g>
		</g>
		<g style="clip-path:url(#SVGID_00000178201033081496823470000002261955285563772570_);">
			<defs>
				<rect id="SVGID_00000165929831883442852070000015491716003678574489_" x="996.3" y="273.8" width="166.6" height="108.3"/>
			</defs>
			<clipPath id="SVGID_00000182509059596828802080000016285148927058675878_">
				<use xlink:href="#SVGID_00000165929831883442852070000015491716003678574489_"  style="overflow:visible;"/>
			</clipPath>
			
				<linearGradient id="SVGID_00000137821210280039255060000015495281887334758328_" gradientUnits="userSpaceOnUse" x1="964.2861" y1="327.9372" x2="1191.0315" y2="327.9372">
				<stop  offset="0" style="stop-color:#B5B5B5"/>
				<stop  offset="0.1507" style="stop-color:#B5B5B5"/>
				<stop  offset="0.3873" style="stop-color:#DADADA"/>
				<stop  offset="0.6129" style="stop-color:#F9F9F9"/>
				<stop  offset="0.7204" style="stop-color:#FFFFFF"/>
				<stop  offset="0.8387" style="stop-color:#F9F9F9"/>
				<stop  offset="1" style="stop-color:#B5B5B5"/>
			</linearGradient>
			
				<path style="clip-path:url(#SVGID_00000182509059596828802080000016285148927058675878_);fill:url(#SVGID_00000137821210280039255060000015495281887334758328_);" d="
				M1158.1,382.1h-157c-2.6,0-4.8-2.1-4.8-4.8v-98.7c0-2.6,2.1-4.8,4.8-4.8h157c2.6,0,4.8,2.1,4.8,4.8v98.7
				C1162.9,379.9,1160.8,382.1,1158.1,382.1z"/>
			<g style="clip-path:url(#SVGID_00000182509059596828802080000016285148927058675878_);">
				
					<linearGradient id="SVGID_00000034770028904359208050000008138979755316664758_" gradientUnits="userSpaceOnUse" x1="1171.0676" y1="290.4424" x2="873.8445" y2="424.2773">
					<stop  offset="0" style="stop-color:#B5B5B5"/>
					<stop  offset="0.1507" style="stop-color:#B5B5B5"/>
					<stop  offset="0.3873" style="stop-color:#DADADA"/>
					<stop  offset="0.6129" style="stop-color:#F9F9F9"/>
					<stop  offset="0.7204" style="stop-color:#FFFFFF"/>
					<stop  offset="0.8387" style="stop-color:#F9F9F9"/>
					<stop  offset="1" style="stop-color:#B5B5B5"/>
				</linearGradient>
				<path style="fill:url(#SVGID_00000034770028904359208050000008138979755316664758_);" d="M1101.1,330.6c0.2,1.8,0.4,1.9,2.1,1.1
					c0.4-0.2,0.7-0.4,1.1-0.5c0.4-0.1,0.8-0.2,1.6-0.4c-0.3,1.1-0.4,1.9-0.7,2.7c-0.8,2.5-3.2,3.8-4.8,5.7c-1.3,1.5-1.8,2.8-1,4.7
					c0.9,2.1,0.8,4.2-1.8,5.5c-1,0.5-1.1,1.4-0.8,2.4c0.1,0.3,0.4,0.7,0.2,0.9c-1.5,2-2.8,4.1-4.7,5.7c-1,0.9-3,0.8-4.5,1
					c-0.3,0-0.8-0.9-1-1.5c-0.4-0.9-0.8-1.8-1.1-2.7c-0.2-0.6-0.3-1.3-0.6-1.9c-0.3-1-0.5-2-1-2.9c-1.1-1.9-1.5-3.6,0.5-5.3
					c-0.7-1.6-1.1-3.3-2-4.7c-0.9-1.4-1-2.6-0.5-4.1c0.3-0.7,0.1-1.4-1-1c-0.9,0.4-1.3,0.1-1.8-0.6c-0.5-0.8-1.1-1.1-2.1-0.4
					c-0.6,0.4-1.5,0.4-2.3,0.5c-0.5,0.1-1,0-1.6,0c-2.2,0.3-3.3-0.2-4.5-2.2c-0.6-1.1-2-2-2-3.1c-0.2-2,0.1-4,0.7-5.9
					c0.4-1.2,1.7-2.1,2.6-3.2c0.2-0.3,0.3-0.6,0.5-0.9c0.6-1,1.1-1.9,1.7-2.8c0.1-0.2,0.5-0.5,0.6-0.5c3,0.5,5.5-1.7,8.4-1.2
					c0.4,0.1,1,0.3,1.2,0.6c0.2,0.3-0.1,0.9-0.2,1.7c1,0.5,2.4,1.4,3.8,1.7c0.8,0.2,1.8-0.6,2.9-1c1.8,0.3,3.9,0.8,6,0.9
					c0.4,0,1.1-0.9,1.5-1.5c0.2-0.4,0.1-0.9,0.1-1.5c-2.3-0.2-5.4,1-5.5-3c-0.6,0.3-1.1,0.5-1.6,0.8c1.3,1.2,0.6,1.8-0.7,2.3
					c-0.6-1-1.2-2-1.6-3c-0.7-1.6-2.2-2.3-3.6-3c-0.2-0.1-0.5,0-0.6,0.1c-0.1,0.1,0,0.5,0.1,0.6c0.4,0.4,0.8,0.7,1.3,1
					c1.3,0.6,1.4,0.6,1,1.9c-1.3-0.8-2.7-1.7-4-2.5c-0.8,0.2-1.9,0.3-2.6,0.7c-1,0.6-1.7,1.5-2.6,2.3c-0.6,0.5-1,1.2-1.7,1.5
					c-1.1,0.5-2.6,0.2-3-0.6c-0.4-0.8,0.2-2.1,0.6-3.1c0.1-0.2,1-0.3,1.6-0.3c0.9,0,2.1,0.5,2.3-0.8c0.1-0.7-0.5-1.4-0.7-2.1
					c1.7-1,3.6-2.2,5.3-3.2c0.4-1,0.7-1.7,1.1-2.4c1.4,3.6,4.3,0.8,6.1,1.7c0.7-2.9,3.5-2.7,5.9-3.2c-0.1-0.1-0.1-0.3-0.2-0.4
					c-0.8,0.1-1.6,0.4-2.4,0.3c-0.7,0-1.7-0.2-2-0.6c-0.5-0.8,0-1.5,0.9-1.9c0.2-0.1,0.4-0.3,1-0.8c-2.5-0.3-3.1,1.9-5,2
					c0.5,0.7,0.9,1.1,1.2,1.5c-1.1,1-2.1,1.9-3.4,3c-0.2-0.6-0.3-0.9-0.4-1.2c-0.5-0.8-0.9-1.8-2.3-1.1c-0.4,0.2-1.2-0.3-1.8-0.5
					c0.3-0.6,0.4-1.7,0.9-1.8c2.3-0.7,3.9-2,5.3-3.9c0.6-0.8,2.3-0.9,3.6-1.1c3.4-0.5,6.4,0.9,9.5,1.7c0.2,0,0.3,0.3,0.8,0.8
					c-2-0.1-3.7-0.3-5.3-0.4c0,0.1-0.1,0.2-0.1,0.3c0.3,0.1,0.6,0.2,0.9,0.2c0.3,0.1,0.8,0,1,0.2c1.5,1.1,2.4,1.2,3.8-0.1
					c0.7-0.6,2.2-0.3,2-1.8c0.4,0,1.1-0.1,1.1,0c0.2,1.1,1,0.5,1.5,0.5c2.5-0.3,4.9-0.8,7.4-1.1c0.4-0.1,0.8,0.1,1.1,0.1
					c0.8,0.1,1.6,0.3,2.8,0.5c-0.6-0.6-0.9-1-0.9-1c0.4-0.6,0.7-1.2,1.1-1.5c0.3-0.3,1-0.6,1.3-0.5c0.4,0.2,1,0.7,1,1.1
					c0,1.1-0.3,2.3-0.5,3.4c2.4-0.4,0.6-2.9,1.7-4.3c0.2,0.6,0.3,1,0.5,1.7c0.5-0.7,0.8-1.1,1.3-1.8c1,0.7,2.1,1.3,3.1,2
					c0.1-0.1,0.2-0.1,0.3-0.2c-0.6-0.6-1.3-1.2-1.9-1.7c2.7-0.6,5.3-1.3,8-1.8c0.5-0.1,1.1,0,1.6,0c0.4,0,0.9,0.1,1.2,0
					c2.8-1.7,5.5,0.2,8.5-0.2c-0.2,0.8-0.3,1.3-0.5,2c2.3-0.2,4.4-0.4,6.5-0.5c1.1-0.1,2.6-0.5,2.7,1.3c0,0.2,0.5,0.6,0.7,0.5
					c1.5-0.2,3.1-0.4,4.6-0.7c0.3-0.1,0.6-0.6,0.8-0.9c-0.3-0.2-0.6-0.5-1-0.7c-0.3-0.2-0.7-0.2-1-0.4c0-0.2,0.1-0.4,0.1-0.6
					c1.5,0.1,3,0.2,4.5,0.4c0,0.1,0,0.2,0,0.4c-0.5,0.2-1,0.4-1.4,0.7c0,0.1,0,0.3-0.1,0.4c5.3,0.8,10.5,1.7,15.9,2.6
					c0.8-0.7,2.9-0.8,5.6,0c-0.1,1-0.2,2-0.3,3.1c-0.2,0-0.3,0-0.5,0c0.2,0.2,0.4,0.5,0.6,0.7c-0.1,0.1-0.2,0.2-0.3,0.2
					c-1.2,0.3-2.4,0.7-3.6,0.9c-1.1,0.2-2.2,0.4-3.4,0.4c-1.3,0-2.2,0.2-2.1,1.7c0,0.3-0.1,0.7-0.3,0.9c-1.3,1.4-2.7,2.8-3.9,4
					c-0.1-1.1-0.1-2.2-0.3-3.2c-0.2-1.3,0.5-1.9,1.6-2.3c1-0.4,1.9-0.8,3.3-1.4c-1.2-0.1-1.9-0.1-2.6-0.2c0-0.2-0.1-0.4-0.1-0.6
					c-0.4,0.3-0.8,0.6-1.2,0.8c-1.2,0.7-2.2,1.1-3.8,1.1c-2.1,0-4.9-1-6.5,1.6c-0.3,0.4-1,0.6-2.1,1.1c1.4,0.2,2.3,0.3,3.2,0.4
					c1.1,0.2,2.2,1.9,1.8,2.9c-0.2,0.6-0.4,1.2-0.6,1.7c-0.6-0.2-0.6-0.2-0.7-2.7c-1.1,1.3-2.2,2.7-3.4,4.1
					c-0.4,0.4-1.2,0.4-1.8,0.7c-0.5,0.2-1,0.5-1.4,0.8c-0.4,0.4-0.8,0.9-1.2,1.4c1.2,2,0.9,3.1-0.9,3.2c-0.9-0.4,1.2-2.3-1.1-2
					c0-0.5-0.1-1-0.2-1.6c-0.5,0.3-0.9,0.5-1.5,0.8c-0.1-0.5-0.1-0.9-0.2-1.5c-0.6,0.6-1.1,1.1-1.7,1.6c0.7,0.4,1.4,0.8,2.3,1.2
					c-0.3,0.2-0.8,0.6-1.4,1c2.4,3.8,0.1,7.6-5.2,8.1c-0.2,0.9-0.4,1.7-0.6,2.6c-0.2,0-0.5-0.1-0.7-0.1c0.1-0.8,0.1-1.6,0.2-2.4
					c-1.8,0.8-1.9,1.1-0.8,2.5c1.6,2,1.7,3.2,0.6,4.1c-0.6,0.4-1.2,0.8-1.9,1.3c-0.4-0.5-0.8-1-1.2-1.5c-0.4-0.5-0.7-0.9-1.1-1.4
					c-0.5,0.7-1,1.3-1.4,1.8l0,0c-0.2-1.3-0.5-2.7-0.8-4.2c-0.5,0.5-1,1-1.4,1.4c-0.6-1.5-1.1-3-1.6-4.4c-3.4-0.2-4.4,2.7-6.5,3.8
					c-0.3,0.1-0.2,0.8-0.3,1.2c-0.3,1.4-0.6,2.7-1,4.1c-0.2,0-0.5,0-0.7,0c-1.1-2.7-2.1-5.5-3.3-8.4c-0.1-0.1-0.8-0.1-1-0.5
					c-1.5-2.3-1.6-2.4-4.3-1.9c-1.4,0.3-2.3-0.2-3.1-1.4c-2.3,1.2-3.1-1-4.4-2.1c-0.2,0.1-0.3,0.2-0.5,0.4c0.8,1.3,1.6,2.6,2.4,4
					c0.7-0.4,1.3-0.8,2-1.3c0.1,0.1,0.3,0.4,0.5,0.5c2,1.3,2.1,2,0.3,3.7C1107,329.1,1104.1,330,1101.1,330.6
					c-0.5-2.9-3.8-9.2-5.3-9.4C1097.4,324.5,1098.1,328.1,1101.1,330.6z M1107.4,310.6c-0.3-1.2-0.8-1.6-1.9-1
					c-0.4,0.2-1,0.3-1.5,0.3c-1.2,0.1-1.5,0.8-0.9,1.6c0.6,0.8,1.4,1.4,2,2c-0.4,0.5-1.3,1.2-1.1,1.4c0.8,1.2,2.1,1,3.7,0.7
					c-0.8-1.7-1.5-3.3-2.3-5C1106,310.7,1106.6,310.7,1107.4,310.6z M1092.2,313c3,0,5.5,0,8.5,0c-1.3-1-2.2-1.7-3.2-2.5
					c0.1-0.1,0.2-0.4,0.4-0.7c-0.1,0-0.1-0.1-0.2-0.1c-0.6,0.5-1.3,1.1-1.9,1.6c-0.5-0.6-0.9-1.1-1.5-1.8
					C1093.5,310.7,1092.8,311.8,1092.2,313z"/>
				
					<linearGradient id="SVGID_00000101072563406565161320000013245015753709000870_" gradientUnits="userSpaceOnUse" x1="1159.9514" y1="266.6702" x2="861.4351" y2="401.0875">
					<stop  offset="0" style="stop-color:#B5B5B5"/>
					<stop  offset="0.1507" style="stop-color:#B5B5B5"/>
					<stop  offset="0.3873" style="stop-color:#DADADA"/>
					<stop  offset="0.6129" style="stop-color:#F9F9F9"/>
					<stop  offset="0.7204" style="stop-color:#FFFFFF"/>
					<stop  offset="0.8387" style="stop-color:#F9F9F9"/>
					<stop  offset="1" style="stop-color:#B5B5B5"/>
				</linearGradient>
				<path style="fill:url(#SVGID_00000101072563406565161320000013245015753709000870_);" d="M1009.6,292.8
					c-0.5-0.2-0.9-0.6-1.4-0.6c-0.5-0.1-1,0.2-1.5,0.1c0.9-1,1.9-1.6,3.5-1.1c1.2,0.4,2.4,1.6,3.9,0.4c0.3-0.2,1.2,0.3,2,0.5
					c-0.1,0.3-0.2,0.8-0.3,1.1c0.9,0.9,1.8,1.7,2.8,2.8c-0.7,0.2-1.5,0.5-2.2,0.7c0,0.1,0,0.2,0.1,0.3c1.2,0,2.5,0,3.9,0
					c0-0.4-0.1-0.7-0.1-1.1c0.1-0.1,0.3-0.2,0.4-0.3c0.4,0.6,0.8,1.1,1.2,1.7c2.3-0.5-0.1-2,0.5-2.8c1.4,0.8,2.8,1.6,4.3,2.5
					c0.3-0.2,0.7-0.5,1.2-0.8c-1-0.9-3.1,0.2-3.1-1.8c0-0.3,1-0.8,1.6-0.9c0.4,0,0.9,0.5,1.4,0.9c1.1-1,3.5-1.3,5.1-0.6
					c1.2,0.5,2.4,0.8,3.6,1.3c0.5,0.2,0.9,0.7,1.4,0.9c1.2,0.7,2.4,1.3,3.6,1.9c-0.6,1.8-2,0.4-3.4,0.2c0.8,0.8,1.4,1.4,2,2
					c-0.1,0.2-0.2,0.3-0.3,0.5c-2.7-0.6-5.3-1.1-8.3-1.7c1.2-0.6,2.3-1.2,3.4-1.8c-0.1-0.1-0.1-0.2-0.2-0.4c-0.7,0.3-1.4,0.6-2.6,1
					c0.5-0.8,0.7-1.1,1-1.7c-1.2,0-2.2,0-3.3,0c0.8,1.6,0.7,1.7-2.2,1.9c0.9,0.4,1.8,0.7,2.5,1c0.2,0.1,0.3,0.4,0.4,0.6
					c0,0.1-0.3,0.2-0.5,0.3c-0.8-1.5-1.7-0.1-2.6-0.1c0-0.4-0.1-0.7-0.1-1.3c-1.3,0.7-2.6,1.2-3.6,2c-0.5,0.3-1,1.1-0.9,1.5
					c0.2,0.5,0.9,1.1,1.5,1.3c1.6,0.5,3.3,0.6,4.8,1.2c0.6,0.2,0.9,1,1.4,1.5c0.3,0.3,0.5,0.5,0.8,0.8c0.2-0.1,0.3-0.2,0.5-0.3
					c-0.2-0.7-0.4-1.4-0.6-2.1c0.4-0.1,0.9-0.3,1.5-0.4c-0.2-0.5-0.3-0.9-0.6-1.4c-0.7-1.2,0.2-2.7,1.6-2.4c1.3,0.2,3.1,0,3.6,1.9
					c0,0.1,1.1-0.1,1.6-0.1c0.4,0,1.1-0.3,1.3-0.1c1,1.2,2,2.2,3.4,3c0.9,0.5,2.2,1.4,0.5,2.6c0.9,0.5,1.6,0.9,2.3,1.3
					c-0.1,0.1-0.1,0.3-0.2,0.4c-1.1,0-2.1,0-3.4,0c0.3-0.8,0.7-1.5,1.1-2.4c-1.2,0.7-2.3,1.2-3.3,1.7c-0.7-1.2-1.5-1.2-3,0.1
					c1,0.1,2.5-0.9,2.5,1c0,0.1,1,0.2,1.5,0.3c0.2,0,0.6,0,0.7,0.1c0.1,0.2,0.1,0.7,0,0.7c-1.1,0.4-2.3,0.7-3.5,1
					c0,0-0.2-0.4-0.3-0.7c-1,0.4-2.7,0.1-2,2c-1.9,0.2-2.7,1.2-3.2,3.2c-0.2,0.7-1.1,1.4-1.8,1.8c-1.4,0.7-1.6,1.6-0.8,2.9
					c0.3,0.5,0.2,1.3,0,2.1c-1.7-1.3-2.1-4.8-5.6-2.4c-2.6-0.9-4.1,0.1-4.1,2.8c0,1.2-0.1,2.3,1.1,3.2c1,0.8,2.1,0.2,2.3-0.3
					c0.6-1.6,1.7-0.8,2.7-0.9c-0.3,1.1-0.6,2.1-0.9,3.2c0.7,0,1.2,0,1.6,0c1,0.1,1.6,0.4,1.3,1.5c-0.2,0.6-0.2,1.3,0,1.9
					c0.1,0.3,0.8,0.6,1.2,0.7c0.7,0.1,1.5-0.1,2.3,0.2c1-0.8,2-1.6,3.3-2.7c-0.2,1.1-0.3,1.7-0.4,2.3c0.6-1.9,2-1,3.1-0.9
					c1.1,0.1,2.3,0.1,2.9,0.2c0.5,0.6,0.8,1,1.2,1.4c0.9,0.9,1.8,1.7,3.3,1.7c1.1,0,2.3,2.5,1.8,3.4c1.9,0.5,3.8,1.1,5.8,1.6
					c3,0.7,4.2,3,2.2,5.2c-1.1,1.3-1.4,2.5-1.6,4c-0.2,1.7-0.7,3.1-2.9,3.6c-1.2,0.2-2.7,0.8-2.2,2.6c0,0.1,0,0.3-0.1,0.5
					c-1,1.2-2.1,2.5-3.2,3.6c-0.3,0.3-1,0.4-1.6,0.6c0.2,1.7-0.3,2.1-3.4,2.4c0,0.4,0.1,0.7,0.1,1.1c-0.5-0.1-1-0.1-1.4-0.2
					c0,0.1-0.1,0.2-0.1,0.3c0.3,0.2,0.5,0.4,0.9,0.7c-0.6,0.7-1.2,1.5-2,2.3c0.3,0.2,0.7,0.4,1.1,0.6c-0.7,0.8-1.8,1.5-2,2.4
					c-0.4,1.4,0.9,1.7,2.3,2c-1.4,0.8-2.6,1-3.9,0.2c-1.6-1-2.3-2.6-2.1-4.1c0.4-3,1.3-5.9,1.8-8.9c0.5-2.4,0.8-4.9,1.1-7.3
					c0.2-1.4-0.2-2.5-1.6-3.1c-1.8-0.7-2.3-2.3-2.9-3.8c-0.5-1.1-1.2-2.1-1.7-3c0-0.9-0.1-1.7,0-2.5c0.1-0.4,0.3-0.9,0.7-1.2
					c1.7-1.8,1.8-2.5,0.4-4.8c-0.4,0.3-0.8,0.6-1.5,1.1c-0.9-1-1.8-2.1-2.8-3.2c-0.3-0.3-0.7-0.6-1.1-0.8c-0.9-0.5-1.9-0.9-2.8-1.3
					c-0.2-0.1-0.5-0.4-0.7-0.3c-2.6,0.8-4.2-1.2-5.7-2.3c-1.1-0.9-1.5-2.7-2.7-3.9c-0.6-0.5-1-1.1-1.8-1.4c0.7,1,1.4,2.1,2.1,3.1
					c0,0.1-0.1,0.1-0.1,0.2c-0.5-0.3-1.1-0.4-1.4-0.8c-1.2-1.2-2-2.7-2.9-4.1c-0.5-0.8-1.3-1.3-1.8-2.1c-1.4-1.9-3.3-3.6-2.6-6.2
					c0.4-1.4-0.2-2.4-1.4-3.2c-0.3-0.2-0.6-0.5-0.7-0.8c-0.5-0.9-0.5-0.8-1.6-0.7c-0.4,0-1.4-0.6-1.3-0.8c0.2-1.4-1.2-2-1.9-2.7
					c-0.9-0.9-2.6-1.3-3.9-1.5c-1.5-0.2-3.1,0.1-4.7,0.2c0,0.1,0-0.2,0-0.4c-0.1,0-0.3,0-0.4,0c0,0.6,0,1.1-0.2,1.7
					c-0.1,0.4-0.7,1.1-0.8,1c-1.9-1-3,1-4.7,0.9c-0.4,0-0.7,0.1-1.2,0c1-0.6,2.1-1.1,3.5-1.9c-1.3-0.5-2.3-0.9-3.3-1.3
					c-0.1,0.1-0.1,0.3-0.2,0.4c-0.4-0.5-0.7-1-1.2-1.7c1.1-0.4,2.1-0.8,3.5-1.4c-1.8-0.1-3.3,0.8-4.7-1c1.5,0,2.7,0,3.9,0
					c0.1-0.1,0.2-0.1,0.2-0.2c-0.9-0.4-1.8-0.8-2.8-1.3c1.9-0.7,3.7-1.3,5.1-1.8c1.3,0.2,2.5,0.5,3.6,0.6c2.5,0.3,5.1,0.6,7.7,0.8
					c1,0.1,2-0.1,3-0.3c2.9-0.5,5.8-0.3,9,0.5c-0.5-0.8-0.9-1.3-1.5-2c-1.3,1.7-2.5,0.7-3.6,0.2c0.3-0.5,0.5-0.9,0.7-1.3
					C1006.8,293,1008.2,292.9,1009.6,292.8c1,0.7,1.9,1.3,3.3,1c0.6-0.1,1.3,0.3,2,0.4c0.2-1.1-0.6-1.3-1.7-1.1
					c-0.6,0.1-1.5,0.3-1.6,0.1C1011.1,292.3,1010.3,292.7,1009.6,292.8z M1026.5,312.8c0.2,0,0.3,0,0.5,0.1c0.4-1,0.7-1.9,1.1-2.9
					c0.2,0,0.4,0.1,0.6,0.1c0.3,0.6,0.6,1.2,1,1.9c0.4-0.6,0.7-1.2,1.2-2.1c-1.4,0-2.8-0.3-3.8,0.1
					C1026.5,310.2,1026.7,311.8,1026.5,312.8z"/>
				
					<linearGradient id="SVGID_00000165912642365136630100000009758776673784108173_" gradientUnits="userSpaceOnUse" x1="1150.7827" y1="246.9602" x2="852.4817" y2="381.2805">
					<stop  offset="0" style="stop-color:#B5B5B5"/>
					<stop  offset="0.1507" style="stop-color:#B5B5B5"/>
					<stop  offset="0.3873" style="stop-color:#DADADA"/>
					<stop  offset="0.6129" style="stop-color:#F9F9F9"/>
					<stop  offset="0.7204" style="stop-color:#FFFFFF"/>
					<stop  offset="0.8387" style="stop-color:#F9F9F9"/>
					<stop  offset="1" style="stop-color:#B5B5B5"/>
				</linearGradient>
				<path style="fill:url(#SVGID_00000165912642365136630100000009758776673784108173_);" d="M1062.9,293.6
					c-0.7,0.1-1.3,0.1-1.9,0.2c0.3,2-0.9,2.9-3.6,3.2c-0.8,0.1-1.6,0.6-2.4,0.9c-0.3,0.1-0.5,0.4-0.7,0.4c-2.1-0.4-2.8,1.2-3.5,2.4
					c-0.6,1-0.7,1.3-2.2,0.8c-1.8-0.7-2.8-1.9-3.6-3.2c-0.7-1.1-1.2-2.4-1.2-3.7c0-2.1-1.6-2.2-3-2.4c-1.1-0.2-2.4,0.3-3.5,0.1
					c-0.8-0.1-1.4-0.8-1.8-1c1.1-0.9,2.1-2.2,3.5-2.9c1.6-0.8,3-2.2,5.1-1.5c1.7,0.6,2.4-0.1,2.5-1.8c0.4,0.4,0.7,0.6,1,0.8
					c2-2.7,5.1-2.2,7.8-2.3c1.6-0.1,3.3,0.6,5.1,1c0.1,0.2,0.3,0.7,0.5,1.2c0.9,2.2,1,2.2,3.2,1c0.5-0.3,1.3-0.1,1.9-0.2
					c0.1,0.2,0.1,0.3,0.2,0.5c-1,0.9-2.4,1.6-3,2.7C1062.7,290.9,1063,292.3,1062.9,293.6z"/>
				
					<linearGradient id="SVGID_00000036246363804402534940000000145647629374519743_" gradientUnits="userSpaceOnUse" x1="1193.2682" y1="336.8833" x2="895.9878" y2="470.744">
					<stop  offset="0" style="stop-color:#B5B5B5"/>
					<stop  offset="0.1507" style="stop-color:#B5B5B5"/>
					<stop  offset="0.3873" style="stop-color:#DADADA"/>
					<stop  offset="0.6129" style="stop-color:#F9F9F9"/>
					<stop  offset="0.7204" style="stop-color:#FFFFFF"/>
					<stop  offset="0.8387" style="stop-color:#F9F9F9"/>
					<stop  offset="1" style="stop-color:#B5B5B5"/>
				</linearGradient>
				<path style="fill:url(#SVGID_00000036246363804402534940000000145647629374519743_);" d="M1158,344.8c0.8,1.6,1.4,3.3,2.3,4.9
					c0.5,0.8,1.4,1.3,2,2c1.9,2.1,2.2,4.5,0.9,6.9c-0.6,1.1-0.6,2.5-2.2,3.1c-1.9,0.7-3.6,0.4-4.6-1.3c-0.4-0.6-0.9-1.1-1.5-1.8
					c-0.3,0.2-0.8,0.5-1.2,0.9c-0.7-1.7-2.1-2.4-3.8-1.8c-1.9,0.7-3.8,1.5-5.7,2.2c-0.5,0.2-1.2,0.2-1.6-0.1c-0.3-0.2,0-0.9-0.1-1.4
					c-0.2-0.9-0.5-1.7-0.7-2.6c-0.3-1.1-0.8-2.2-0.7-3.3c0.1-0.6,1.1-1.5,1.8-1.6c2.5-0.3,3.6-2.1,5.1-3.7c0.3-0.4,1.3-0.3,1.9-0.4
					c0.1,0.1,0.2,0.3,0.2,0.4c0.3-0.5,0.5-1,0.8-1.6c1.1,0,2.2,0,3.6,0c-0.1,0.6-0.2,1.2-0.3,1.8c0.8,0.4,1.6,0.9,2.9,1.7
					c0.2-1.6,0.4-2.9,0.5-4.2C1157.7,344.9,1157.8,344.9,1158,344.8z"/>
				
					<linearGradient id="SVGID_00000003806669887889298000000014880324165365653386_" gradientUnits="userSpaceOnUse" x1="1189.4821" y1="326.9549" x2="884.1667" y2="464.4336">
					<stop  offset="0" style="stop-color:#B5B5B5"/>
					<stop  offset="0.1507" style="stop-color:#B5B5B5"/>
					<stop  offset="0.3873" style="stop-color:#DADADA"/>
					<stop  offset="0.6129" style="stop-color:#F9F9F9"/>
					<stop  offset="0.7204" style="stop-color:#FFFFFF"/>
					<stop  offset="0.8387" style="stop-color:#F9F9F9"/>
					<stop  offset="1" style="stop-color:#B5B5B5"/>
				</linearGradient>
				<path style="fill:url(#SVGID_00000003806669887889298000000014880324165365653386_);" d="M1162,345c-0.5-0.2-1-0.3-1.2-0.6
					c-0.9-1-1.7-2.4-3-0.3c0,0-0.6-0.2-0.9-0.3c-0.5-0.2-0.9-0.5-1.4-0.8c0.4-1.2-0.4-1.9-2.8-2.4c-0.5-0.8-0.9-1.4-1.4-2.1
					c1.9,0.3,3.9,0.4,5.7,1.1C1159.7,340.7,1161.8,343.3,1162,345z"/>
				
					<linearGradient id="SVGID_00000150104563193711466400000017460258385366112941_" gradientUnits="userSpaceOnUse" x1="1184.1729" y1="318.9198" x2="889.524" y2="451.5956">
					<stop  offset="0" style="stop-color:#B5B5B5"/>
					<stop  offset="0.1507" style="stop-color:#B5B5B5"/>
					<stop  offset="0.3873" style="stop-color:#DADADA"/>
					<stop  offset="0.6129" style="stop-color:#F9F9F9"/>
					<stop  offset="0.7204" style="stop-color:#FFFFFF"/>
					<stop  offset="0.8387" style="stop-color:#F9F9F9"/>
					<stop  offset="1" style="stop-color:#B5B5B5"/>
				</linearGradient>
				<path style="fill:url(#SVGID_00000150104563193711466400000017460258385366112941_);" d="M1138.8,337.7c1.6-1.2,3-2.2,4.5-3.3
					c0.2,0.2,0.5,0.5,1,1c-0.4,1.6-0.9,3.4-1.3,5.1C1139.9,340.3,1139.4,340.8,1138.8,337.7z"/>
				
					<linearGradient id="SVGID_00000060032361976344070990000012082742561235888556_" gradientUnits="userSpaceOnUse" x1="1180.6699" y1="315.1665" x2="890.5225" y2="445.8153">
					<stop  offset="0" style="stop-color:#B5B5B5"/>
					<stop  offset="0.1507" style="stop-color:#B5B5B5"/>
					<stop  offset="0.3873" style="stop-color:#DADADA"/>
					<stop  offset="0.6129" style="stop-color:#F9F9F9"/>
					<stop  offset="0.7204" style="stop-color:#FFFFFF"/>
					<stop  offset="0.8387" style="stop-color:#F9F9F9"/>
					<stop  offset="1" style="stop-color:#B5B5B5"/>
				</linearGradient>
				<path style="fill:url(#SVGID_00000060032361976344070990000012082742561235888556_);" d="M1104.8,345.7c0.6,2.7-0.4,5.1-1.4,7.5
					c-0.1,0.3-0.8,0.6-1.2,0.7c-0.2,0-0.6-0.6-0.7-0.9c-0.1-1.4,0-2.9,0-4.3c0-0.2,0.1-0.4,0.3-0.5
					C1102.8,347.4,1103.8,346.6,1104.8,345.7z"/>
				
					<linearGradient id="SVGID_00000090258712071419631710000009422490367896870839_" gradientUnits="userSpaceOnUse" x1="1177.5491" y1="304.7457" x2="883.0499" y2="437.3541">
					<stop  offset="0" style="stop-color:#B5B5B5"/>
					<stop  offset="0.1507" style="stop-color:#B5B5B5"/>
					<stop  offset="0.3873" style="stop-color:#DADADA"/>
					<stop  offset="0.6129" style="stop-color:#F9F9F9"/>
					<stop  offset="0.7204" style="stop-color:#FFFFFF"/>
					<stop  offset="0.8387" style="stop-color:#F9F9F9"/>
					<stop  offset="1" style="stop-color:#B5B5B5"/>
				</linearGradient>
				<path style="fill:url(#SVGID_00000090258712071419631710000009422490367896870839_);" d="M1160,312.1c-1,0.2-1.9,0.5-2.6,0.6
					c-0.2,1.2,0,2.6-0.6,3.5c-0.5,0.8-1.8,1.1-2.8,1.6c-0.9,0.4-1.9,0.8-3.1,1.3c-0.1-0.4-0.6-1.1-0.4-1.3c0.6-0.5,1.3-1.1,2.1-1.2
					c2.8-0.4,3.7-1.4,3.9-4c0-0.6,0.9-1.3,1.5-1.5c0.6-0.2,1.3,0.3,2,0.5C1160,311.8,1160,311.9,1160,312.1z"/>
				
					<linearGradient id="SVGID_00000020368496569903662550000017607015707009939608_" gradientUnits="userSpaceOnUse" x1="1185.4833" y1="315.4014" x2="875.6299" y2="454.9236">
					<stop  offset="0" style="stop-color:#B5B5B5"/>
					<stop  offset="0.1507" style="stop-color:#B5B5B5"/>
					<stop  offset="0.3873" style="stop-color:#DADADA"/>
					<stop  offset="0.6129" style="stop-color:#F9F9F9"/>
					<stop  offset="0.7204" style="stop-color:#FFFFFF"/>
					<stop  offset="0.8387" style="stop-color:#F9F9F9"/>
					<stop  offset="1" style="stop-color:#B5B5B5"/>
				</linearGradient>
				<path style="fill:url(#SVGID_00000020368496569903662550000017607015707009939608_);" d="M1136.7,342.5
					c-1.9-2.5-3.9-4.9-5.8-7.4c0.2-0.1,0.3-0.3,0.5-0.4c1.2,1,2.2,2.2,3.5,3C1136.7,338.9,1137.5,340.4,1136.7,342.5L1136.7,342.5z"
					/>
				
					<linearGradient id="SVGID_00000062896095071729547480000005618712637753041057_" gradientUnits="userSpaceOnUse" x1="1161.4481" y1="270.526" x2="864.5226" y2="404.2269">
					<stop  offset="0" style="stop-color:#B5B5B5"/>
					<stop  offset="0.1507" style="stop-color:#B5B5B5"/>
					<stop  offset="0.3873" style="stop-color:#DADADA"/>
					<stop  offset="0.6129" style="stop-color:#F9F9F9"/>
					<stop  offset="0.7204" style="stop-color:#FFFFFF"/>
					<stop  offset="0.8387" style="stop-color:#F9F9F9"/>
					<stop  offset="1" style="stop-color:#B5B5B5"/>
				</linearGradient>
				<path style="fill:url(#SVGID_00000062896095071729547480000005618712637753041057_);" d="M1109.1,295.8c-1.3-0.4-2.3-0.7-3.4-1
					c2.6-3.1,6.4-2.8,9.8-3.4c0.1,0.9-0.8,1.7-1.9,1.4c-1.8-0.5-3.3,0.3-4.7,1.1C1108.9,294.4,1109,294.9,1109.1,295.8z"/>
				
					<linearGradient id="SVGID_00000047739130263535624820000010000787176979569061_" gradientUnits="userSpaceOnUse" x1="1147.6959" y1="236.4937" x2="845.9868" y2="372.3486">
					<stop  offset="0" style="stop-color:#B5B5B5"/>
					<stop  offset="0.1507" style="stop-color:#B5B5B5"/>
					<stop  offset="0.3873" style="stop-color:#DADADA"/>
					<stop  offset="0.6129" style="stop-color:#F9F9F9"/>
					<stop  offset="0.7204" style="stop-color:#FFFFFF"/>
					<stop  offset="0.8387" style="stop-color:#F9F9F9"/>
					<stop  offset="1" style="stop-color:#B5B5B5"/>
				</linearGradient>
				<path style="fill:url(#SVGID_00000047739130263535624820000010000787176979569061_);" d="M1020.9,290.3c1.3,0.6,2.5,1.3,3.9,1.7
					c0.9,0.3,1.9,0.1,2.8,0.2c0.9,0.1,1.9,0.1,2.8,0.4C1027.4,293.6,1022.3,292.4,1020.9,290.3z"/>
				
					<linearGradient id="SVGID_00000151526160991477105040000007186044519423672974_" gradientUnits="userSpaceOnUse" x1="1200.5702" y1="353.0697" x2="906.3832" y2="485.5375">
					<stop  offset="0" style="stop-color:#B5B5B5"/>
					<stop  offset="0.1507" style="stop-color:#B5B5B5"/>
					<stop  offset="0.3873" style="stop-color:#DADADA"/>
					<stop  offset="0.6129" style="stop-color:#F9F9F9"/>
					<stop  offset="0.7204" style="stop-color:#FFFFFF"/>
					<stop  offset="0.8387" style="stop-color:#F9F9F9"/>
					<stop  offset="1" style="stop-color:#B5B5B5"/>
				</linearGradient>
				<path style="fill:url(#SVGID_00000151526160991477105040000007186044519423672974_);" d="M1176,362.8c-0.1,1.6-1.9,3.8-2.8,3.9
					c-0.4,0.1-0.8,0-1.1-0.2c-0.2-0.1-0.2-0.7-0.1-0.9C1173.2,364.7,1174.4,363.9,1176,362.8z"/>
				
					<linearGradient id="SVGID_00000167391494914649515250000004383645798436203437_" gradientUnits="userSpaceOnUse" x1="1156.182" y1="257.3212" x2="856.7031" y2="392.1719">
					<stop  offset="0" style="stop-color:#B5B5B5"/>
					<stop  offset="0.1507" style="stop-color:#B5B5B5"/>
					<stop  offset="0.3873" style="stop-color:#DADADA"/>
					<stop  offset="0.6129" style="stop-color:#F9F9F9"/>
					<stop  offset="0.7204" style="stop-color:#FFFFFF"/>
					<stop  offset="0.8387" style="stop-color:#F9F9F9"/>
					<stop  offset="1" style="stop-color:#B5B5B5"/>
				</linearGradient>
				<path style="fill:url(#SVGID_00000167391494914649515250000004383645798436203437_);" d="M1062.4,298c1.5,0,2.8,0,4.1,0
					c0.3,0,0.7,0.3,1,0.5c-0.3,0.3-0.5,0.6-0.8,0.8C1064.6,300.2,1062.8,299.7,1062.4,298z"/>
				
					<linearGradient id="SVGID_00000042737331886820147780000007717329630361105556_" gradientUnits="userSpaceOnUse" x1="1184.0845" y1="312.5264" x2="874.0191" y2="452.144">
					<stop  offset="0" style="stop-color:#B5B5B5"/>
					<stop  offset="0.1507" style="stop-color:#B5B5B5"/>
					<stop  offset="0.3873" style="stop-color:#DADADA"/>
					<stop  offset="0.6129" style="stop-color:#F9F9F9"/>
					<stop  offset="0.7204" style="stop-color:#FFFFFF"/>
					<stop  offset="0.8387" style="stop-color:#F9F9F9"/>
					<stop  offset="1" style="stop-color:#B5B5B5"/>
				</linearGradient>
				<path style="fill:url(#SVGID_00000042737331886820147780000007717329630361105556_);" d="M1132.9,332c1.5,1.6,2.9,3.4,2.9,5.8
					c-0.5-0.4-1-0.8-1.3-1.4c-0.7-1.1-1.2-2.3-1.8-3.4C1132.6,332.8,1132.8,332.4,1132.9,332C1132.9,332.1,1132.9,332,1132.9,332z"
					/>
				
					<linearGradient id="SVGID_00000050644056066203097730000010579986178202026919_" gradientUnits="userSpaceOnUse" x1="1157.7311" y1="268.5101" x2="869.0594" y2="398.4945">
					<stop  offset="0" style="stop-color:#B5B5B5"/>
					<stop  offset="0.1507" style="stop-color:#B5B5B5"/>
					<stop  offset="0.3873" style="stop-color:#DADADA"/>
					<stop  offset="0.6129" style="stop-color:#F9F9F9"/>
					<stop  offset="0.7204" style="stop-color:#FFFFFF"/>
					<stop  offset="0.8387" style="stop-color:#F9F9F9"/>
					<stop  offset="1" style="stop-color:#B5B5B5"/>
				</linearGradient>
				<path style="fill:url(#SVGID_00000050644056066203097730000010579986178202026919_);" d="M1076.2,302.9c0.5,1.2,1.1,2.4,1.6,3.6
					c0.1,0.2-0.4,0.8-0.6,0.8c-0.6,0-1.2-0.2-1.7-0.3c0,0,0-0.6,0.2-0.7c0.7-0.4,0.7-0.6,0.1-1.3c-0.4-0.4-0.1-1.4-0.1-2.1
					C1075.8,302.9,1076,302.9,1076.2,302.9z"/>
				
					<linearGradient id="SVGID_00000026842439350290187230000009289960571816203912_" gradientUnits="userSpaceOnUse" x1="1199.9314" y1="351.0399" x2="902.8763" y2="484.7993">
					<stop  offset="0" style="stop-color:#B5B5B5"/>
					<stop  offset="0.1507" style="stop-color:#B5B5B5"/>
					<stop  offset="0.3873" style="stop-color:#DADADA"/>
					<stop  offset="0.6129" style="stop-color:#F9F9F9"/>
					<stop  offset="0.7204" style="stop-color:#FFFFFF"/>
					<stop  offset="0.8387" style="stop-color:#F9F9F9"/>
					<stop  offset="1" style="stop-color:#B5B5B5"/>
				</linearGradient>
				<path style="fill:url(#SVGID_00000026842439350290187230000009289960571816203912_);" d="M1176.1,362.4
					c-0.1-1.1-0.2-1.9-0.2-2.7c0.7,0.6,1.5,1.2,2.4,2c-0.3,0.4-0.8,1.1-1.3,1.8C1176.6,363.1,1176.3,362.7,1176.1,362.4z"/>
				
					<linearGradient id="SVGID_00000181794578199247820090000017055202861796988341_" gradientUnits="userSpaceOnUse" x1="1181.4791" y1="312.9373" x2="885.8867" y2="446.038">
					<stop  offset="0" style="stop-color:#B5B5B5"/>
					<stop  offset="0.1507" style="stop-color:#B5B5B5"/>
					<stop  offset="0.3873" style="stop-color:#DADADA"/>
					<stop  offset="0.6129" style="stop-color:#F9F9F9"/>
					<stop  offset="0.7204" style="stop-color:#FFFFFF"/>
					<stop  offset="0.8387" style="stop-color:#F9F9F9"/>
					<stop  offset="1" style="stop-color:#B5B5B5"/>
				</linearGradient>
				<path style="fill:url(#SVGID_00000181794578199247820090000017055202861796988341_);" d="M1146.1,329.1c0.3,0.1,0.8,0.3,1.5,0.6
					c-0.6,0.3-1,0.5-1.4,0.7c-0.5-0.6-1.1-1.2-1.8-2c0.8-0.3,1.6-0.6,2.4-0.9c0-0.1,0-0.3-0.1-0.4
					C1146.5,327.7,1146.3,328.3,1146.1,329.1z"/>
				
					<linearGradient id="SVGID_00000082337135948435580020000015186509700926352566_" gradientUnits="userSpaceOnUse" x1="1185.7059" y1="322.4715" x2="892.1387" y2="454.6603">
					<stop  offset="0" style="stop-color:#B5B5B5"/>
					<stop  offset="0.1507" style="stop-color:#B5B5B5"/>
					<stop  offset="0.3873" style="stop-color:#DADADA"/>
					<stop  offset="0.6129" style="stop-color:#F9F9F9"/>
					<stop  offset="0.7204" style="stop-color:#FFFFFF"/>
					<stop  offset="0.8387" style="stop-color:#F9F9F9"/>
					<stop  offset="1" style="stop-color:#B5B5B5"/>
				</linearGradient>
				<path style="fill:url(#SVGID_00000082337135948435580020000015186509700926352566_);" d="M1145.6,340.2
					c-0.2,0.1-0.5,0.3-0.9,0.5c-0.3-2-0.2-2.1,1.8-1.9c0.1,0.9,0.3,1.8,0.5,3.1C1146.3,341.1,1145.9,340.6,1145.6,340.2z"/>
				
					<linearGradient id="SVGID_00000102517955642086924310000010504844468787389098_" gradientUnits="userSpaceOnUse" x1="1183.9318" y1="317.5625" x2="886.7566" y2="451.3759">
					<stop  offset="0" style="stop-color:#B5B5B5"/>
					<stop  offset="0.1507" style="stop-color:#B5B5B5"/>
					<stop  offset="0.3873" style="stop-color:#DADADA"/>
					<stop  offset="0.6129" style="stop-color:#F9F9F9"/>
					<stop  offset="0.7204" style="stop-color:#FFFFFF"/>
					<stop  offset="0.8387" style="stop-color:#F9F9F9"/>
					<stop  offset="1" style="stop-color:#B5B5B5"/>
				</linearGradient>
				<path style="fill:url(#SVGID_00000102517955642086924310000010504844468787389098_);" d="M1148.7,332.5
					c-0.1,0.9-0.2,1.5-0.4,2.4c-1-0.5-1.7-0.9-2.8-1.4C1146.7,333.2,1147.5,332.9,1148.7,332.5z"/>
				
					<linearGradient id="SVGID_00000023269070014396336600000000471602926806854840_" gradientUnits="userSpaceOnUse" x1="1146.9614" y1="236.7616" x2="847.1671" y2="371.7543">
					<stop  offset="0" style="stop-color:#B5B5B5"/>
					<stop  offset="0.1507" style="stop-color:#B5B5B5"/>
					<stop  offset="0.3873" style="stop-color:#DADADA"/>
					<stop  offset="0.6129" style="stop-color:#F9F9F9"/>
					<stop  offset="0.7204" style="stop-color:#FFFFFF"/>
					<stop  offset="0.8387" style="stop-color:#F9F9F9"/>
					<stop  offset="1" style="stop-color:#B5B5B5"/>
				</linearGradient>
				<path style="fill:url(#SVGID_00000023269070014396336600000000471602926806854840_);" d="M1017.7,293.8c1-0.2,1.7-0.4,2.4-0.4
					c0.3,0,0.8,0.2,0.9,0.5c0.1,0.2,0,0.7-0.2,0.8c-0.4,0.2-0.9,0.2-1.2,0.1C1019,294.7,1018.6,294.3,1017.7,293.8z"/>
				
					<linearGradient id="SVGID_00000072251708081703132150000006024001267990477232_" gradientUnits="userSpaceOnUse" x1="1186.6313" y1="321.7744" x2="886.1502" y2="457.0764">
					<stop  offset="0" style="stop-color:#B5B5B5"/>
					<stop  offset="0.1507" style="stop-color:#B5B5B5"/>
					<stop  offset="0.3873" style="stop-color:#DADADA"/>
					<stop  offset="0.6129" style="stop-color:#F9F9F9"/>
					<stop  offset="0.7204" style="stop-color:#FFFFFF"/>
					<stop  offset="0.8387" style="stop-color:#F9F9F9"/>
					<stop  offset="1" style="stop-color:#B5B5B5"/>
				</linearGradient>
				<path style="fill:url(#SVGID_00000072251708081703132150000006024001267990477232_);" d="M1136.7,342.5c1.9-0.4,3.6,0.1,5.3,0.6
					c0,0.2-0.1,0.4-0.1,0.6C1140.1,343.3,1138.4,342.9,1136.7,342.5C1136.7,342.5,1136.7,342.5,1136.7,342.5z"/>
				
					<linearGradient id="SVGID_00000019671158901454694440000017381879644324002719_" gradientUnits="userSpaceOnUse" x1="1162.3044" y1="266.3026" x2="860.2996" y2="402.2907">
					<stop  offset="0" style="stop-color:#B5B5B5"/>
					<stop  offset="0.1507" style="stop-color:#B5B5B5"/>
					<stop  offset="0.3873" style="stop-color:#DADADA"/>
					<stop  offset="0.6129" style="stop-color:#F9F9F9"/>
					<stop  offset="0.7204" style="stop-color:#FFFFFF"/>
					<stop  offset="0.8387" style="stop-color:#F9F9F9"/>
					<stop  offset="1" style="stop-color:#B5B5B5"/>
				</linearGradient>
				<path style="fill:url(#SVGID_00000019671158901454694440000017381879644324002719_);" d="M1033.8,326.1c-2.1-0.6-3.7-1-5.2-1.4
					C1029.9,323.6,1030.1,323.7,1033.8,326.1z"/>
				
					<linearGradient id="SVGID_00000000194232556561743590000000609851585122734506_" gradientUnits="userSpaceOnUse" x1="1145.2815" y1="233.299" x2="845.5481" y2="368.2643">
					<stop  offset="0" style="stop-color:#B5B5B5"/>
					<stop  offset="0.1507" style="stop-color:#B5B5B5"/>
					<stop  offset="0.3873" style="stop-color:#DADADA"/>
					<stop  offset="0.6129" style="stop-color:#F9F9F9"/>
					<stop  offset="0.7204" style="stop-color:#FFFFFF"/>
					<stop  offset="0.8387" style="stop-color:#F9F9F9"/>
					<stop  offset="1" style="stop-color:#B5B5B5"/>
				</linearGradient>
				<path style="fill:url(#SVGID_00000000194232556561743590000000609851585122734506_);" d="M1019.7,291.1
					c-1.2-0.2-2.2-0.3-3.6-0.5c0.3-0.3,0.5-0.8,0.7-0.8C1018,289.8,1019.2,289.4,1019.7,291.1z"/>
				
					<linearGradient id="SVGID_00000165229868468686692540000006697721189833546937_" gradientUnits="userSpaceOnUse" x1="1163.0454" y1="269.7572" x2="862.6767" y2="405.0085">
					<stop  offset="0" style="stop-color:#B5B5B5"/>
					<stop  offset="0.1507" style="stop-color:#B5B5B5"/>
					<stop  offset="0.3873" style="stop-color:#DADADA"/>
					<stop  offset="0.6129" style="stop-color:#F9F9F9"/>
					<stop  offset="0.7204" style="stop-color:#FFFFFF"/>
					<stop  offset="0.8387" style="stop-color:#F9F9F9"/>
					<stop  offset="1" style="stop-color:#B5B5B5"/>
				</linearGradient>
				<path style="fill:url(#SVGID_00000165229868468686692540000006697721189833546937_);" d="M1037.3,327.4c-1.1-0.1-2-0.2-3.3-0.3
					C1036,325.7,1036.5,325.7,1037.3,327.4z"/>
				
					<linearGradient id="SVGID_00000156577342348104748510000010846371181921288101_" gradientUnits="userSpaceOnUse" x1="1145.5287" y1="235.0644" x2="846.9682" y2="369.5016">
					<stop  offset="0" style="stop-color:#B5B5B5"/>
					<stop  offset="0.1507" style="stop-color:#B5B5B5"/>
					<stop  offset="0.3873" style="stop-color:#DADADA"/>
					<stop  offset="0.6129" style="stop-color:#F9F9F9"/>
					<stop  offset="0.7204" style="stop-color:#FFFFFF"/>
					<stop  offset="0.8387" style="stop-color:#F9F9F9"/>
					<stop  offset="1" style="stop-color:#B5B5B5"/>
				</linearGradient>
				<path style="fill:url(#SVGID_00000156577342348104748510000010846371181921288101_);" d="M1016.7,292.8c0.2-1.2,0.8-1.3,3.6-0.4
					C1019.2,292.5,1018.1,292.6,1016.7,292.8z"/>
				
					<linearGradient id="SVGID_00000008848701965609555740000018422818563830459071_" gradientUnits="userSpaceOnUse" x1="1159.5629" y1="267.3358" x2="863.9274" y2="400.4559">
					<stop  offset="0" style="stop-color:#B5B5B5"/>
					<stop  offset="0.1507" style="stop-color:#B5B5B5"/>
					<stop  offset="0.3873" style="stop-color:#DADADA"/>
					<stop  offset="0.6129" style="stop-color:#F9F9F9"/>
					<stop  offset="0.7204" style="stop-color:#FFFFFF"/>
					<stop  offset="0.8387" style="stop-color:#F9F9F9"/>
					<stop  offset="1" style="stop-color:#B5B5B5"/>
				</linearGradient>
				<path style="fill:url(#SVGID_00000008848701965609555740000018422818563830459071_);" d="M1075.6,305c-1,0.8-1.6,1.4-2.3,2
					c-0.1-0.1-0.3-0.3-0.4-0.4C1073.5,306,1073.3,304.5,1075.6,305z"/>
			</g>
			<g style="opacity:0.53;clip-path:url(#SVGID_00000182509059596828802080000016285148927058675878_);">
				<g class="st43">
					<rect x="991.3" y="279.7" class="st44" width="183.8" height="1.8"/>
					<rect x="991.3" y="278.7" class="st45" width="183.8" height="1.8"/>
				</g>
				<g class="st43">
					<rect x="991.3" y="290.3" class="st44" width="183.8" height="1.8"/>
					<rect x="991.3" y="289.3" class="st45" width="183.8" height="1.8"/>
				</g>
				<g class="st43">
					<rect x="991.3" y="300.9" class="st44" width="183.8" height="1.8"/>
					<rect x="991.3" y="299.9" class="st45" width="183.8" height="1.8"/>
				</g>
				<g class="st43">
					<rect x="991.3" y="311.6" class="st44" width="183.8" height="1.8"/>
					<rect x="991.3" y="310.6" class="st45" width="183.8" height="1.8"/>
				</g>
				<g class="st43">
					<rect x="991.3" y="322.2" class="st44" width="183.8" height="1.8"/>
					<rect x="991.3" y="321.2" class="st45" width="183.8" height="1.8"/>
				</g>
				<g class="st43">
					<rect x="991.3" y="332.8" class="st44" width="183.8" height="1.8"/>
					<rect x="991.3" y="331.8" class="st45" width="183.8" height="1.8"/>
				</g>
				<g class="st43">
					<rect x="991.3" y="343.5" class="st44" width="183.8" height="1.8"/>
					<rect x="991.3" y="342.5" class="st45" width="183.8" height="1.8"/>
				</g>
				<g class="st43">
					<rect x="991.3" y="354.1" class="st44" width="183.8" height="1.8"/>
					<rect x="991.3" y="353.1" class="st45" width="183.8" height="1.8"/>
				</g>
				<g class="st43">
					<rect x="991.3" y="364.7" class="st44" width="183.8" height="1.8"/>
					<rect x="991.3" y="363.7" class="st45" width="183.8" height="1.8"/>
				</g>
				<g class="st43">
					<rect x="991.3" y="375.4" class="st44" width="183.8" height="1.8"/>
					<rect x="991.3" y="374.4" class="st45" width="183.8" height="1.8"/>
				</g>
			</g>
		</g>
		<g style="clip-path:url(#SVGID_00000178201033081496823470000002261955285563772570_);">
			<g>
				<text transform="matrix(1.0622 0 0 1 330.583 161.8457)" class="st4 st46 st47">BANK </text>
			</g>
			<g>
				<path class="st4" d="M279.5,130.5c-8.3,8.1-13.4,19.2-13.4,31.4h-14.2v-40.8h0C262.3,121.1,272,124.6,279.5,130.5z"/>
				<path class="st4" d="M270.9,161.8h43.3v-40.8l0,0C290.3,121.1,270.9,139.3,270.9,161.8L270.9,161.8z"/>
			</g>
		</g>
		<g style="clip-path:url(#SVGID_00000178201033081496823470000002261955285563772570_);">
			<defs>
				<path id="SVGID_00000049942370212295612890000004942286157955677853_" d="M391.2,376H271.7c-8.2,0-14.8-6.6-14.8-14.8v-79.3
					c0-8.2,6.6-14.8,14.8-14.8h119.5c8.2,0,14.8,6.6,14.8,14.8v79.3C406,369.4,399.4,376,391.2,376z"/>
			</defs>
			<clipPath id="SVGID_00000170974966554510371290000001795354030854654860_">
				<use xlink:href="#SVGID_00000049942370212295612890000004942286157955677853_"  style="overflow:visible;"/>
			</clipPath>
			
				<linearGradient id="SVGID_00000060728717106477261170000008276997473744030901_" gradientUnits="userSpaceOnUse" x1="263.2561" y1="265.6855" x2="406.8693" y2="383.3596">
				<stop  offset="0" style="stop-color:#663500"/>
				<stop  offset="0.3552" style="stop-color:#B28A4C"/>
				<stop  offset="0.5195" style="stop-color:#D0AD6A"/>
				<stop  offset="1" style="stop-color:#FDEDC9"/>
			</linearGradient>
			
				<path style="clip-path:url(#SVGID_00000170974966554510371290000001795354030854654860_);fill:url(#SVGID_00000060728717106477261170000008276997473744030901_);" d="
				M390.9,376H272c-8.3,0-15.1-6.7-15.1-15.1v-78.8c0-8.3,6.7-15.1,15.1-15.1h119c8.3,0,15.1,6.7,15.1,15.1V361
				C406,369.3,399.3,376,390.9,376z"/>
			<g style="clip-path:url(#SVGID_00000170974966554510371290000001795354030854654860_);">
				<g class="st50">
					<path class="st51" d="M311.6,340.5c8.9-0.7,13.5-7,13.5-13.3c0-6.3-4.7-12.8-13.6-13.4c1.5-11.6,5.9-17.6,13.4-18.3h3.1
						l1.3,0.1v-28.5h-2.5v26c-0.7,0-1.4,0-2.1,0.1h-79.3v2.3h72.3c-4.7,3.1-7.6,9.2-8.7,18.2h-61v2.3h60.7h1.4
						c8.6,0,12.5,5.7,12.5,11.1c0,5.3-3.9,11.1-12.5,11.1h-1.5H248v2.3h61.1c1.8,7.3,4.7,12.1,9.1,14.7h-67.1v2.3h75.8v21.9h2.5
						v-24.2l-1.2,0C321.8,355.4,314.9,353.6,311.6,340.5z"/>
					<path class="st51" d="M421,293.2h-79.3c-0.7-0.1-1.4-0.1-2.1-0.1v-26h-2.5v28.5l1.3-0.1h3.2c7.5,0.7,11.9,6.7,13.4,18.3
						c-9,0.6-13.6,7-13.6,13.4c0,6.3,4.6,12.7,13.5,13.3c-3.3,13.1-10.2,14.8-16.6,14.8l-1.2,0v24.2h2.5v-21.9h75.8v-2.3h-67.1
						c4.4-2.6,7.4-7.4,9.1-14.7h61.1v-2.3h-60.5h-1.5c-8.6,0-12.5-5.7-12.5-11.1c0-5.3,3.9-11.1,12.5-11.1h1.4h60.7v-2.3h-61
						c-1.1-9-4-15.1-8.7-18.2H421V293.2z"/>
				</g>
				<g>
					<path class="st52" d="M309.9,338.8c8.9-0.7,13.5-7,13.5-13.3c0-6.3-4.7-12.8-13.6-13.4c1.5-11.6,5.9-17.6,13.4-18.3h3.1
						l1.3,0.1v-28.5H325v26c-0.7,0-1.4,0-2.1,0.1h-79.3v2.3H316c-4.7,3.1-7.6,9.2-8.7,18.2h-61v2.3H307h1.4
						c8.6,0,12.5,5.7,12.5,11.1s-3.9,11.1-12.5,11.1h-1.5h-60.5v2.3h61.1c1.8,7.3,4.7,12.1,9.1,14.7h-67.1v2.3h75.8v21.9h2.5v-24.2
						l-1.2,0C320.1,353.7,313.2,351.8,309.9,338.8z"/>
					<path class="st52" d="M419.3,291.5H340c-0.7-0.1-1.4-0.1-2.1-0.1v-26h-2.5v28.5l1.3-0.1h3.2c7.5,0.7,11.9,6.7,13.4,18.3
						c-9,0.6-13.6,7-13.6,13.4c0,6.3,4.6,12.7,13.5,13.3c-3.3,13.1-10.2,14.8-16.6,14.8l-1.2,0v24.2h2.5v-21.9h75.8v-2.3h-67.1
						c4.4-2.6,7.4-7.4,9.1-14.7h61.1v-2.3h-60.5h-1.5c-8.6,0-12.5-5.7-12.5-11.1s3.9-11.1,12.5-11.1h1.4h60.7V312h-61
						c-1.1-9-4-15.1-8.7-18.2h72.3V291.5z"/>
				</g>
			</g>
		</g>
	</g>
	<g>
		<g>
			<path class="st4" d="M1128.2,180.5l-4.7-4.5c9.8-9.3,15.3-21.6,15.3-34.7c0-13.1-5.4-25.4-15.3-34.7l4.7-4.5
				c11.1,10.5,17.2,24.4,17.2,39.2C1145.4,156.2,1139.3,170.1,1128.2,180.5z"/>
		</g>
		<g>
			<path class="st4" d="M1112.5,165.8l-4.7-4.5c5.6-5.3,8.8-12.4,8.8-19.9c0-7.5-3.1-14.6-8.8-19.9l4.7-4.5
				c6.9,6.5,10.7,15.2,10.7,24.4C1123.2,150.6,1119.4,159.3,1112.5,165.8z"/>
		</g>
		<g>
			<path class="st4" d="M1099.3,153.3l-4.7-4.5c2.1-2,3.3-4.6,3.3-7.4c0-2.8-1.2-5.5-3.3-7.5l4.8-4.4c3.4,3.2,5.2,7.4,5.2,11.9
				C1104.5,145.9,1102.7,150.1,1099.3,153.3z"/>
		</g>
	</g>
</g>
</svg>
